<svg width="512" height="512" viewBox="0 0 512 512" fill="none" xmlns="http://www.w3.org/2000/svg">
<g clip-path="url(#clip0_408_30)">
<rect width="512" height="512" rx="100" fill="#1A73E8"/>
<path d="M256.134 511.737C397.445 511.737 512.001 397.181 512.001 255.869C512.001 114.557 397.445 0.000976562 256.134 0.000976562C114.822 0.000976562 0.265625 114.557 0.265625 255.869C0.265625 397.181 114.822 511.737 256.134 511.737Z" fill="#1A73E8"/>
<path d="M349.249 366.393H174.89C150.094 366.393 128.465 347.664 128.465 322.869V322.605V337.113C128.465 361.909 150.094 383.539 174.889 383.539H349.249C374.308 383.539 395.675 361.645 395.675 337.113V322.606C395.675 347.4 374.045 366.393 349.249 366.393V366.393ZM128.2 241.361V221.576L95.7556 168.029C93.9091 165.128 93.1174 162.49 93.3816 159.852V182.536C93.3816 184.647 94.1723 186.758 95.4914 189.132L128.2 241.361Z" fill="#185ABC"/>
<path d="M349.249 151.147H104.987C95.227 151.147 89.6885 159.588 96.2829 168.557L128.2 223.95V322.869C128.2 348.192 146.665 369.294 171.724 369.294H348.985C374.045 369.294 395.411 347.929 395.411 322.869V197.837C395.675 172.513 374.308 151.147 349.249 151.147V151.147Z" fill="white"/>
<path d="M346.348 221.049H177.79C170.404 221.049 163.282 216.565 163.282 209.442C163.282 202.321 170.405 197.837 177.79 197.837H346.346C353.732 197.837 360.855 202.321 360.855 209.442C360.855 216.565 353.732 221.049 346.346 221.049H346.348ZM346.348 267.475H177.79C170.404 267.475 163.282 262.991 163.282 255.869C163.282 248.746 170.405 244.262 177.79 244.262H346.346C353.732 244.262 360.855 248.747 360.855 255.869C360.855 262.991 353.732 267.475 346.346 267.475H346.348ZM299.658 314.164H177.526C170.141 314.164 163.02 309.68 163.02 302.558C163.02 295.436 170.141 290.952 177.526 290.952H299.658C307.043 290.952 314.165 295.435 314.165 302.558C314.165 309.681 307.043 314.164 299.658 314.164Z" fill="#8AB4F8"/>
</g>
<defs>
<clipPath id="clip0_408_30">
<rect width="512" height="512" fill="white"/>
</clipPath>
</defs>
</svg>
